<svg width="114" height="114" viewBox="0 0 114 114" fill="none" xmlns="http://www.w3.org/2000/svg">
<g clip-path="url(#clip0_1_44)">
<path d="M72.3092 15.6652C80.5229 18.6547 87.6656 24.0128 92.8341 31.0617C98.0026 38.1107 100.965 46.5341 101.346 55.2665C101.727 63.999 99.5103 72.6484 94.9758 80.121C90.4412 87.5936 83.7926 93.5536 75.8707 97.2476C67.9489 100.942 59.1095 102.203 50.4705 100.874C41.8314 99.5437 33.7807 95.682 27.3364 89.7767C20.8921 83.8714 16.3437 76.1878 14.2663 67.6974C12.1889 59.2071 12.6759 50.2914 15.6656 42.0778C17.6505 36.6242 20.6902 31.615 24.6111 27.3362C28.532 23.0573 33.2572 19.5927 38.5171 17.14C43.777 14.6874 49.4684 13.2948 55.2665 13.0417C61.0646 12.7887 66.8557 13.6801 72.3092 15.6652Z" fill="#B9D0DA"/>
<path d="M85.0461 64.3474C83.2439 62.2495 78.0571 61.9632 76.9247 61.5511C75.7924 61.1389 70.3581 66.3772 69.2247 67.728C68.9011 68.0184 68.6752 68.4018 68.5781 68.8257C68.481 69.2495 68.5174 69.693 68.6823 70.0953C68.6823 70.0953 68.022 80.2775 69.4504 82.0808C70.8788 83.8841 64.5693 89.7637 62.768 89.4294C60.9667 89.0952 55.2499 88.9374 54.6319 88.8721C54.014 88.8069 46.0444 94.4058 45.5937 95.2027C45.3519 96.7394 45.3654 98.3056 45.6338 99.8379C55.4104 102.487 65.8002 101.696 75.0637 97.5995C84.3273 93.5027 91.9024 86.348 96.5207 77.3331C94.1288 76.3029 91.7267 75.8446 88.8639 74.5558C85.1438 72.8825 86.998 73.0743 86.6143 69.7282C86.2306 66.3822 86.8483 66.4453 85.0461 64.3474Z" fill="#ADAE9B"/>
<path d="M91.5031 57.7787C92.5814 58.816 93.6837 59.1586 94.7229 57.7799C95.3298 56.7645 95.643 55.6005 95.6274 54.4175C95.7526 53.3777 96.4897 52.1859 96.0945 51.1577C94.9038 48.0554 92.3265 49.3063 90.1958 50.7688C89.5242 51.2309 88.887 51.7333 88.2151 52.1964C85.2933 54.2329 90.2621 56.5863 91.5031 57.7787Z" fill="#ADAE9B"/>
<path d="M29.5849 22.6786C32.1803 26.3103 35.9347 29.9126 40.4788 29.5265C49.4125 28.7694 48.3585 21.973 57.6496 30.8065C66.9407 39.6399 60.8398 41.426 71.9477 44.8294C83.0556 48.2328 90.29 48.6183 91.4887 44.8862C92.6875 41.1542 78.3224 34.803 83.2405 25.6937C83.7669 24.7131 84.3925 23.789 85.1074 22.9359C77.2751 16.5544 67.493 13.0487 57.3902 13.0026C47.2875 12.9565 37.4738 16.3727 29.5836 22.6824L29.5849 22.6786Z" fill="#ADAE9B"/>
<path d="M21.7865 75.1583C25.0047 72.4826 25.1207 71.7224 32.8075 69.5494C40.4943 67.3764 39.7946 73.6962 44.5179 77.0191C49.2413 80.342 53.0254 81.3979 55.4443 80.0382C57.8632 78.6785 61.5889 66.2407 57.1742 65.5959C52.7595 64.9511 47.1843 63.0826 42.3712 61.3308C37.5581 59.5789 41.9616 57.1729 41.6793 51.7791C41.3971 46.3853 32.7341 44.1942 31.1779 43.6278C29.6218 43.0614 22.2822 44.7191 19.5527 46.932C17.6344 48.2843 15.6113 49.4812 13.5026 50.5116C11.9422 60.7067 13.9988 71.1264 19.3158 79.9641C20.1836 78.7113 20.036 76.6112 21.7865 75.1583Z" fill="#ADAE9B"/>
<path d="M48.7916 34.9284C48.1158 35.1548 47.5042 35.5399 47.0079 36.0514C46.5116 36.5629 46.1451 37.1858 45.9391 37.8681C45.7772 38.3387 45.6839 38.8302 45.6623 39.3274C45.6971 40.4201 46.0371 41.4813 46.6438 42.3908C47.2505 43.3003 48.0996 44.0219 49.0951 44.4739C50.7285 45.3046 57.1399 46.6006 57.7568 46.6687C58.904 46.8562 60.0182 47.2079 61.0651 47.7132C61.6501 48.0123 61.4235 45.9888 61.402 45.7788C61.3803 44.49 60.9755 43.2369 60.2391 42.1789C59.3087 41.0337 57.9159 40.3607 56.8438 39.365C54.6686 37.3388 52.206 33.9417 48.7916 34.9284Z" fill="#ADAE9B"/>
<path d="M76.1266 24.9742C76.0942 23.8791 76.0571 23.1771 75.084 22.5175C73.1354 21.1932 70.3022 21.4837 68.3056 22.5193C67.7258 22.802 67.2162 23.2104 66.8138 23.7146C66.4114 24.2188 66.1263 24.8063 65.9792 25.4344C65.8882 25.862 65.8367 26.2971 65.8254 26.7342C65.7722 28.6624 66.3027 30.5618 67.3475 32.1834C68.3912 33.6721 70.2237 34.0582 71.8288 34.686C72.9988 35.1438 74.1516 35.6418 75.2874 36.18C76.3618 36.6871 77.854 38.6306 79.0131 37.3817C81.4498 34.7568 78.4289 32.3995 77.1828 29.8963C76.488 28.3483 76.1281 26.671 76.1266 24.9742Z" fill="white"/>
<path d="M34.5534 19.2438C35.3848 20.2871 36.375 21.1934 37.4878 21.9294C39.3462 23.174 42.6183 22.508 44.0438 20.8751C45.2503 19.487 46.5667 20.5834 47.8042 21.3616C49.6127 22.4976 51.2877 23.9214 53.3175 24.6601C55.5596 25.4762 56.6872 25.7493 57.6987 23.2655C58.1216 22.2265 58.6542 21.1167 57.6526 20.2754C56.4029 19.4285 54.9588 18.9124 53.4555 18.7755C52.505 18.6474 51.6219 18.2139 50.9392 17.5403C50.1559 16.817 49.2637 16.2215 48.2953 15.7756C47.5153 15.4918 46.0047 15.8997 44.8119 15.8699C44.0751 15.8166 43.3464 15.682 42.6392 15.4686C39.8241 16.4526 37.1152 17.7173 34.5534 19.2438Z" fill="white"/>
<path d="M74.8537 69.1298C74.3394 70.3675 74.6478 71.7685 74.5858 73.0645C74.5443 73.9007 74.4863 74.7415 74.4377 75.5795C74.3941 76.2841 74.3656 76.9909 74.358 77.699C74.324 80.7951 74.8294 83.9854 77.0486 86.3117C77.9022 87.2087 79.4816 83.4864 79.6613 83.0804C80.3413 81.1416 80.8061 79.1339 81.0475 77.0935C81.4691 74.9909 82.1387 72.9434 82.4921 70.8266C82.6942 69.9693 82.6274 69.0704 82.3005 68.2525C81.9737 67.4345 81.4027 66.7371 80.6654 66.2551C78.3579 64.6831 75.77 66.9252 74.8537 69.1298Z" fill="white"/>
<path d="M25.5176 60.2408C25.2689 60.6025 24.4982 61.0329 24.3842 61.4309C23.7756 63.5506 27.6133 63.4065 28.6411 62.9654C30.4152 62.2021 32.4389 61.2616 31.7211 58.889C31.4329 57.9264 32.5931 57.4696 33.171 56.9521C33.4495 56.7044 35.3409 55.0165 35.1999 54.5938C34.9326 53.4078 34.4819 52.2707 33.864 51.2236C32.2151 48.9825 28.9983 48.2597 26.3801 48.2869C23.6715 48.3141 20.8231 50.1432 18.991 52.0336C18.6626 52.3718 18.42 52.7838 18.2835 53.2351C18.1578 53.6169 18.1241 54.023 18.1851 54.4203C18.2462 54.8176 18.4002 55.1949 18.6346 55.5214C18.8691 55.8479 19.1774 56.1144 19.5343 56.2992C19.8913 56.484 20.2869 56.5818 20.6888 56.5848C21.8753 56.6048 23.0605 56.4985 24.2245 56.2679C25.8544 55.9034 25.7345 56.8175 26.267 57.1177C27.0714 57.5712 25.8428 59.7685 25.5176 60.2408Z" fill="white"/>
<path opacity="0.2" d="M71.6513 98.9477C82.5292 95.1261 91.4829 87.2047 96.602 76.8737C101.721 66.5428 102.6 54.6203 99.0516 43.6503C95.503 32.6803 87.8079 23.5313 77.6082 18.1556C67.4084 12.7799 55.5116 11.6032 44.4563 14.8764C57.4482 32.0995 84.1859 72.5232 71.6513 98.9477Z" fill="#212A3C"/>
<path opacity="0.2" d="M76.0829 97.1426C83.9674 93.4161 90.5729 87.4401 95.0677 79.967C99.5626 72.4939 101.746 63.858 101.342 55.1466C100.939 46.4352 97.9667 38.038 92.8004 31.0124C87.634 23.9868 80.5044 18.6469 72.3092 15.6652C70.7957 15.1156 69.2534 14.6484 67.6893 14.2657C79.8917 32.1901 97.499 67.0931 76.0829 97.1426Z" fill="#212A3C"/>
<path opacity="0.3" d="M30.7316 33.0215C41.8426 30.8083 53.3866 41.744 56.5127 57.4462C59.6387 73.1483 53.1728 87.6738 42.0602 89.8855C30.9476 92.0971 19.4048 81.1639 16.2775 65.4624C13.1501 49.7608 19.6243 35.2362 30.7316 33.0215Z" fill="url(#paint0_linear_1_44)"/>
<path opacity="0.3" d="M25.3746 44.5879C32.0097 43.2665 39.0403 50.4865 41.0787 60.7156C43.1171 70.9447 39.389 80.3104 32.7546 81.6299C26.1202 82.9494 19.0854 75.732 17.0473 65.5021C15.0093 55.2721 18.737 45.9104 25.3746 44.5879Z" fill="white"/>
</g>
<defs>
<linearGradient id="paint0_linear_1_44" x1="-102.552" y1="107.743" x2="-65.4777" y2="106.6" gradientUnits="userSpaceOnUse">
<stop stop-color="white"/>
<stop offset="1" stop-color="white" stop-opacity="0"/>
</linearGradient>
<clipPath id="clip0_1_44">
<rect width="88.388" height="88.388" fill="white" transform="translate(0.549988 83.6075) rotate(-70)"/>
</clipPath>
</defs>
</svg>
