<svg width="117" height="117" viewBox="0 0 117 117" fill="none" xmlns="http://www.w3.org/2000/svg">
<path d="M116.667 58.334C116.667 69.8711 113.245 81.1491 106.836 90.7418C100.426 100.334 91.3154 107.811 80.6564 112.226C69.9974 116.641 58.2686 117.796 46.9532 115.545C35.6378 113.294 25.2439 107.738 17.086 99.5803C8.92807 91.4223 3.37249 81.0283 1.12178 69.7128C-1.12893 58.3974 0.0263152 46.6686 4.44143 36.0097C8.85655 25.3508 16.3332 16.2405 25.926 9.83081C35.5188 3.42114 46.7969 1.69527e-09 58.334 0C73.805 0.000265214 88.6422 6.14627 99.5817 17.086C110.521 28.0257 116.667 42.863 116.667 58.334Z" fill="#E2B783"/>
<path d="M82.532 36.724C77.778 34.563 76.915 32.835 71.732 33.267C63.522 33.7 56.608 39.316 47.967 38.452C38.893 37.588 31.98 33.7 22.474 35.859C16.423 37.588 15.992 37.588 9.51001 36.724C7.95901 36.502 6.21001 36.337 4.35001 36.224C0.763283 45.0011 -0.629601 54.5203 0.291992 63.9571C1.21358 73.3939 4.42187 82.4638 9.63897 90.3811C14.8561 98.2984 21.9247 104.825 30.2325 109.394C38.5404 113.964 47.8371 116.439 57.3173 116.606C66.7975 116.773 76.1754 114.626 84.6388 110.351C93.1023 106.076 100.396 99.8027 105.888 92.0737C111.38 84.3446 114.906 75.3932 116.158 65.9946C117.411 56.5961 116.354 47.0338 113.078 38.136C103.789 42.669 92.696 41.81 82.532 36.724Z" fill="#FBCABA"/>
<path d="M65.68 77.778C59.631 81.234 53.58 80.371 46.667 81.668C32.407 84.26 27.223 73.024 14.692 70.868C9.93901 70.005 6.48201 70.005 1.72901 68.275C1.42901 68.201 1.12201 68.114 0.81601 68.027C3.24415 82.454 11.005 95.4418 22.5597 104.415C34.1145 113.389 48.6194 117.692 63.1984 116.473C77.7774 115.254 91.3659 108.6 101.27 97.8324C111.173 87.0644 116.669 72.9679 116.667 58.338C116.667 58.073 116.65 57.814 116.648 57.55C107.148 59.85 96.391 65.787 89.013 69.14C80.804 73.024 73.889 73.457 65.68 77.778Z" fill="#D76D6D"/>
<path d="M18.69 15.556C19.8553 14.4753 21.0653 13.4443 22.32 12.463C23.795 12.494 25.494 12.532 25.494 12.532H31.003C31.436 12.532 44.939 12.315 44.939 12.315C44.939 12.315 47.53 11.991 47.964 11.991C48.281 11.991 51.695 12.109 53.48 12.172C54.121 12.192 54.554 12.207 54.554 12.207C53.3942 12.2824 52.2398 12.4263 51.097 12.638C49.476 12.963 47.53 13.395 46.991 13.504C46.452 13.613 45.591 13.504 44.615 13.611C43.3769 13.7399 42.1495 13.9565 40.942 14.259C39.754 14.584 38.025 14.475 37.054 14.692C35.6996 14.9491 34.3262 15.0932 32.948 15.123C30.897 15.232 26.899 15.556 25.711 15.556H18.69Z" fill="#FBCABA"/>
<path d="M92.359 103.704C89.167 103.622 81.933 102.73 75.335 102.73C68.737 102.73 61.076 103.378 61.076 103.378C64.2856 103.865 67.5177 104.189 70.76 104.351H77.36C78.85 104.351 80.978 104.919 83.105 104.999C85.232 105.079 90.234 104.919 90.234 104.919C90.234 104.919 91.716 104.831 93.71 104.707C94.225 104.313 94.736 103.916 95.237 103.507C94.2836 103.641 93.3218 103.707 92.359 103.704Z" fill="#FBCABA"/>
<path d="M95.892 28.899C95.342 28.952 93.362 29.184 91.718 29.34C90.5594 29.4366 89.3959 29.464 88.234 29.422C88.234 29.422 88.662 29.479 89.298 29.565C91.068 29.809 94.452 30.272 94.769 30.303C95.2 30.347 97.811 30.288 97.811 30.288C97.811 30.288 106.357 31.021 110.042 31.34C109.566 30.43 109.068 29.533 108.547 28.649C107.663 28.6086 106.778 28.6333 105.898 28.723C104.907 28.839 103.198 28.557 101.983 28.759C100.751 28.9359 99.5092 29.0272 98.265 29.032C97.286 29.041 96.438 28.845 95.892 28.899Z" fill="#FBCABA"/>
<path d="M40.159 21.74C42.5924 22.2252 45.055 22.5502 47.531 22.713H52.559C53.693 22.713 55.313 23.279 56.934 23.359C58.555 23.439 62.362 23.279 62.362 23.279C62.362 23.279 69.734 22.713 72.246 22.388C74.758 22.063 76.298 22.226 78.403 22.064C79.9402 21.9557 81.482 21.929 83.022 21.984C85.209 21.984 85.939 22.307 87.883 22.307C89.827 22.307 90.233 22.388 92.339 22.388C93.4496 22.3664 94.5582 22.285 95.66 22.144C96.3665 22.1704 97.0736 22.1167 97.768 21.984C98.415 21.82 96.552 21.416 96.552 21.416H93.959C93.5242 21.4206 93.0897 21.3932 92.659 21.334C92.011 21.254 90.715 21.254 90.715 21.254C90.715 21.254 82.045 20.605 81.803 20.605H72.159C71.187 20.605 66.407 22.144 63.977 22.064C61.547 21.984 56.036 21.092 51.014 21.092C45.992 21.092 40.159 21.74 40.159 21.74Z" fill="#FBCABA"/>
<path d="M116.193 50.939C114.334 50.782 111.551 50.548 111.435 50.551C111.261 50.559 105.228 50.775 104.535 50.798C103.842 50.821 100.481 52.738 98.735 52.704C96.989 52.67 93.009 51.775 89.412 51.904C86.8074 52.0517 84.2177 52.396 81.665 52.934C83.4008 53.4307 85.1833 53.7467 86.984 53.877C88.666 53.818 89.771 53.777 90.584 53.75C91.397 53.723 92.584 54.339 93.746 54.393C95.0438 54.3803 96.3401 54.3025 97.63 54.16C97.63 54.16 102.885 53.31 104.67 52.872C106.125 52.6109 107.594 52.4316 109.07 52.335C110.162 52.1705 111.266 52.1002 112.37 52.125C113.938 52.068 114.47 52.425 115.87 52.377C116.052 52.371 116.215 52.368 116.37 52.365C116.311 51.887 116.252 51.4117 116.193 50.939Z" fill="#E2B783"/>
<path d="M14.394 50.096C16.8284 50.5813 19.292 50.9064 21.769 51.069H26.791C27.925 51.069 29.546 51.636 31.166 51.716C32.786 51.796 36.594 51.636 36.594 51.636C36.594 51.636 43.967 51.069 46.479 50.745C48.991 50.421 50.529 50.583 52.636 50.421C54.1728 50.311 55.7143 50.2836 57.254 50.339C59.441 50.339 60.17 50.664 62.114 50.664C64.058 50.664 64.465 50.745 66.571 50.745C67.6819 50.7234 68.7908 50.6423 69.893 50.502C70.5989 50.5289 71.3056 50.4742 71.999 50.339C72.648 50.177 70.783 49.772 70.783 49.772H68.191C67.7563 49.7766 67.3218 49.7495 66.891 49.691C66.242 49.61 64.947 49.61 64.947 49.61C64.947 49.61 56.278 48.963 56.034 48.963H46.394C45.421 48.963 40.641 50.502 38.211 50.421C35.781 50.34 30.271 49.448 25.248 49.448C20.225 49.448 14.394 50.096 14.394 50.096Z" fill="#E2B783"/>
<path d="M62.976 69.136C64.322 69.136 64.77 69.459 65.967 69.459C67.164 69.459 67.414 69.541 68.711 69.541C69.3981 69.5186 70.082 69.437 70.755 69.297C71.1945 69.3232 71.6351 69.2686 72.055 69.136C72.455 68.974 71.306 68.569 71.306 68.569H69.706C69.437 68.5735 69.1685 68.546 68.906 68.487C68.5084 68.4319 68.1074 68.4051 67.706 68.407C67.706 68.407 62.37 67.758 62.221 67.758H56.286C55.686 67.758 52.745 69.297 51.25 69.216C49.755 69.135 46.361 68.245 43.269 68.245C41.0286 68.2922 38.7949 68.5085 36.587 68.892C38.062 69.3723 39.5828 69.6987 41.125 69.866H44.217C44.917 69.866 45.917 70.431 46.911 70.513C47.905 70.595 50.251 70.431 50.251 70.431C50.251 70.431 54.789 69.866 56.335 69.541C57.5913 69.3624 58.8566 69.2539 60.125 69.216C61.0713 69.1073 62.0251 69.0806 62.976 69.136Z" fill="#E2B783"/>
<path d="M70.036 92.253C72.803 92.09 73.228 92.171 76.102 92.171C78.976 92.171 79.932 92.496 82.486 92.496C85.04 92.496 85.57 92.577 88.337 92.577C91.104 92.577 91.85 92.334 92.701 92.334C93.626 92.3609 94.5516 92.3064 95.467 92.171C96.318 92.009 93.867 91.604 93.867 91.604H90.461C89.8933 91.6083 89.3258 91.5816 88.761 91.524C87.908 91.442 86.206 91.442 86.206 91.442C86.206 91.442 74.822 90.795 74.501 90.795H61.841C60.562 90.795 54.285 92.334 51.093 92.253C47.901 92.172 40.664 91.28 34.066 91.28C27.468 91.28 19.81 91.928 19.81 91.928C23.0189 92.4147 26.2504 92.7394 29.492 92.901H36.092C37.58 92.901 39.708 93.468 41.837 93.548C43.966 93.628 48.966 93.468 48.966 93.468C48.966 93.468 58.648 92.901 61.948 92.577C65.248 92.253 67.269 92.415 70.036 92.253Z" fill="#FBCABA"/>
<path d="M111.046 77.214C109.671 77.3135 108.307 77.5276 106.968 77.854C106.008 78.12 104.277 78.1 103.105 78.484C101.915 78.8481 100.701 79.1265 99.472 79.317C98.505 79.476 97.639 79.417 97.105 79.547C96.571 79.677 94.649 80.214 93.048 80.62C91.9173 80.89 90.7717 81.0926 89.617 81.227C89.617 81.227 90.048 81.22 90.69 81.209C92.476 81.18 95.89 81.124 96.21 81.109C96.642 81.085 99.21 80.629 99.21 80.629C99.21 80.629 110.05 79.904 112.593 79.736C112.959 78.808 113.302 77.8683 113.623 76.917C112.668 77.031 111.742 77.141 111.046 77.214Z" fill="#FBCABA"/>
<path d="M33.849 105.518C34.825 105.463 35.682 105.618 36.226 105.54C36.77 105.462 38.737 105.14 40.373 104.903C41.5256 104.754 42.6859 104.674 43.848 104.663C43.848 104.663 43.419 104.625 42.778 104.563C41 104.402 37.598 104.095 37.278 104.079C36.845 104.054 34.239 104.236 34.239 104.236C34.239 104.236 25.294 103.886 21.739 103.743C22.8463 104.636 23.9863 105.489 25.159 106.302C25.552 106.272 25.902 106.229 26.236 106.173C27.219 106.011 28.936 106.216 30.143 105.959C31.3663 105.724 32.6048 105.577 33.849 105.518Z" fill="#FBCABA"/>
<path opacity="0.2" d="M105.83 24.49C88.087 50.09 51.637 95.241 14.453 96.747C24.3074 108.01 38.1145 115.054 53.0174 116.421C67.9203 117.787 82.7784 113.373 94.5172 104.09C106.256 94.8078 113.977 81.3678 116.083 66.5512C118.189 51.7346 114.518 36.6756 105.83 24.49Z" fill="#212A3C"/>
<path opacity="0.2" d="M116.62 56.495C98.14 79.716 64.689 110.859 21.92 103.886C30.4989 110.75 40.8421 115.05 51.7583 116.293C62.6745 117.535 73.7196 115.668 83.6214 110.908C93.5233 106.148 101.879 98.6874 107.726 89.386C113.574 80.0846 116.675 69.3207 116.672 58.334C116.667 57.717 116.64 57.107 116.62 56.495Z" fill="#212A3C"/>
<path opacity="0.3" d="M83.25 15.983C91.893 30.692 82.05 52.515 61.26 64.729C40.47 76.943 16.616 74.924 7.975 60.214C-0.665997 45.504 9.175 23.68 29.964 11.466C50.753 -0.748 74.607 1.274 83.25 15.983Z" fill="url(#paint0_linear_1_65)"/>
<path opacity="0.3" d="M64.151 14.076C69.311 22.861 62.518 36.432 48.976 44.389C35.434 52.346 20.276 51.674 15.113 42.889C9.95 34.104 16.741 20.534 30.285 12.576C43.829 4.61801 58.988 5.29001 64.151 14.076Z" fill="white"/>
<defs>
<linearGradient id="paint0_linear_1_65" x1="-112.255" y1="-72.1264" x2="-91.9206" y2="-20.1512" gradientUnits="userSpaceOnUse">
<stop stop-color="white"/>
<stop offset="1" stop-color="white" stop-opacity="0"/>
</linearGradient>
</defs>
</svg>
