<svg width="106" height="106" viewBox="0 0 106 106" fill="none" xmlns="http://www.w3.org/2000/svg">
<g clip-path="url(#clip0_1_23)">
<path d="M62.7038 95.194C86.2176 89.6358 100.773 66.0682 95.2152 42.5544C89.657 19.0405 66.0894 4.48464 42.5756 10.0429C19.0617 15.6012 4.50586 39.1687 10.0641 62.6826C15.6224 86.1964 39.1899 100.752 62.7038 95.194Z" fill="#E6E7E8"/>
<path d="M57.857 65.304C57.8572 67.4342 58.489 69.5165 59.6727 71.2877C60.8563 73.0588 62.5385 74.4392 64.5066 75.2543C66.4747 76.0694 68.6403 76.2826 70.7296 75.867C72.8188 75.4514 74.7379 74.4255 76.2442 72.9193C77.7505 71.413 78.7764 69.4938 79.192 67.4046C79.6076 65.3153 79.3944 63.1497 78.5793 61.1816C77.7642 59.2135 76.3838 57.5313 74.6127 56.3477C72.8415 55.164 70.7592 54.5322 68.629 54.532C65.7721 54.532 63.0322 55.6669 61.012 57.687C58.9919 59.7072 57.857 62.4471 57.857 65.304Z" fill="#EBCF9B"/>
<path d="M78.303 32.528C78.303 31.3296 77.9476 30.1581 77.2818 29.1617C76.616 28.1653 75.6696 27.3887 74.5624 26.9301C73.4552 26.4716 72.2369 26.3516 71.0616 26.5855C69.8862 26.8194 68.8066 27.3965 67.9593 28.244C67.112 29.0915 66.535 30.1712 66.3013 31.3466C66.0676 32.522 66.1878 33.7403 66.6465 34.8474C67.1052 35.9545 67.882 36.9007 68.8785 37.5664C69.8751 38.232 71.0466 38.5872 72.245 38.587C73.0407 38.5871 73.8286 38.4305 74.5637 38.126C75.2988 37.8216 75.9667 37.3753 76.5293 36.8126C77.0919 36.2499 77.5381 35.5819 77.8424 34.8468C78.1467 34.1116 78.3033 33.3237 78.303 32.528Z" fill="#B4797A"/>
<path d="M82.387 56.216C82.3897 59.3739 83.3608 62.4549 85.1693 65.0436C86.9779 67.6323 89.5368 69.6041 92.501 70.693C96.7142 61.3944 97.5423 50.915 94.842 41.07C91.3335 41.7623 88.1739 43.6507 85.9025 46.4129C83.6311 49.175 82.3886 52.6398 82.387 56.216Z" fill="#EBCF9B"/>
<path d="M23.311 63.747C23.311 63.2642 23.1678 62.7923 22.8996 62.3909C22.6314 61.9894 22.2502 61.6766 21.8041 61.4918C21.3581 61.3071 20.8673 61.2587 20.3938 61.3529C19.9203 61.4471 19.4853 61.6796 19.144 62.021C18.8026 62.3623 18.5701 62.7973 18.4759 63.2708C18.3817 63.7443 18.4301 64.2351 18.6148 64.6811C18.7996 65.1272 19.1124 65.5084 19.5139 65.7766C19.9153 66.0448 20.3872 66.188 20.87 66.188C21.1906 66.1881 21.5081 66.1251 21.8043 66.0025C22.1005 65.8798 22.3697 65.7 22.5963 65.4733C22.823 65.2466 23.0028 64.9775 23.1255 64.6813C23.2481 64.3851 23.3111 64.0676 23.311 63.747Z" fill="#EBCF9B"/>
<path d="M80.744 45.445C80.744 44.9624 80.6009 44.4907 80.3328 44.0894C80.0647 43.6882 79.6836 43.3754 79.2377 43.1907C78.7919 43.0061 78.3013 42.9577 77.828 43.0519C77.3547 43.146 76.9199 43.3784 76.5787 43.7197C76.2374 44.0609 76.005 44.4957 75.9109 44.969C75.8167 45.4423 75.8651 45.9329 76.0498 46.3787C76.2344 46.8246 76.5471 47.2057 76.9484 47.4738C77.3497 47.7419 77.8214 47.885 78.304 47.885C78.6245 47.8851 78.9418 47.8221 79.2379 47.6995C79.534 47.577 79.803 47.3972 80.0296 47.1706C80.2562 46.944 80.436 46.675 80.5585 46.3789C80.6811 46.0828 80.7441 45.7655 80.744 45.445Z" fill="#EBCF9B"/>
<path d="M25.84 74.729C25.84 75.9274 26.1954 77.0989 26.8612 78.0953C27.527 79.0917 28.4734 79.8683 29.5806 80.3269C30.6877 80.7854 31.9061 80.9054 33.0814 80.6715C34.2568 80.4376 35.3364 79.8605 36.1837 79.013C37.031 78.1655 37.608 77.0858 37.8417 75.9104C38.0754 74.735 37.9553 73.5168 37.4965 72.4096C37.0378 71.3025 36.261 70.3563 35.2645 69.6906C34.2679 69.025 33.0964 68.6698 31.898 68.67C31.1023 68.6699 30.3144 68.8265 29.5793 69.131C28.8442 69.4354 28.1763 69.8817 27.6137 70.4444C27.0511 71.0071 26.6049 71.6751 26.3006 72.4102C25.9962 73.1454 25.8397 73.9333 25.84 74.729Z" fill="#EBCF9B"/>
<path d="M49.145 23.359C49.145 24.1244 49.372 24.8726 49.7972 25.5091C50.2225 26.1455 50.8269 26.6415 51.534 26.9344C52.2412 27.2273 53.0193 27.304 53.77 27.1546C54.5207 27.0053 55.2103 26.6367 55.7515 26.0955C56.2927 25.5543 56.6613 24.8647 56.8106 24.114C56.96 23.3633 56.8833 22.5852 56.5904 21.878C56.2975 21.1709 55.8015 20.5665 55.1651 20.1412C54.5286 19.716 53.7804 19.489 53.015 19.489C51.9886 19.489 51.0043 19.8967 50.2785 20.6225C49.5527 21.3483 49.145 22.3326 49.145 23.359Z" fill="#EBCF9B"/>
<path d="M66.959 93.988C66.353 90.4529 64.5345 87.2392 61.816 84.8995C59.0975 82.5598 55.6489 81.2401 52.063 81.1673C48.477 81.0945 44.9777 82.2732 42.1665 84.5007C39.3554 86.7282 37.4079 89.8654 36.659 93.373C46.3631 97.1815 57.1083 97.3996 66.959 93.988Z" fill="#B4797A"/>
<path d="M27.9 51.63C29.5308 51.6298 31.125 51.146 32.4809 50.2399C33.8367 49.3337 34.8935 48.0459 35.5175 46.5392C36.1415 45.0324 36.3047 43.3745 35.9865 41.775C35.6683 40.1756 34.883 38.7064 33.7298 37.5532C32.5766 36.4 31.1074 35.6147 29.508 35.2965C27.9085 34.9783 26.2506 35.1415 24.7439 35.7655C23.2371 36.3895 21.9493 37.4463 21.0431 38.8022C20.137 40.1581 19.6532 41.7522 19.653 43.383C19.6533 45.5702 20.5222 47.6677 22.0688 49.2142C23.6153 50.7608 25.7128 51.6297 27.9 51.63Z" fill="#B4797A"/>
<path d="M53.443 44.31C53.4432 43.8272 53.3002 43.3551 53.0321 42.9536C52.764 42.552 52.3828 42.239 51.9368 42.0541C51.4908 41.8692 51 41.8207 50.5264 41.9148C50.0528 42.0089 49.6178 42.2413 49.2763 42.5826C48.9348 42.9239 48.7022 43.3589 48.608 43.8324C48.5137 44.3059 48.562 44.7968 48.7467 45.2429C48.9314 45.689 49.2443 46.0703 49.6457 46.3385C50.0472 46.6068 50.5192 46.75 51.002 46.75C51.3225 46.7501 51.6399 46.6871 51.936 46.5646C52.2322 46.442 52.5013 46.2623 52.728 46.0357C52.9547 45.8091 53.1345 45.5401 53.2572 45.244C53.3798 44.9479 53.443 44.6305 53.443 44.31Z" fill="#EBCF9B"/>
<path d="M45.695 61.645C44.9298 61.645 44.1818 61.8719 43.5455 62.297C42.9093 62.7222 42.4134 63.3264 42.1205 64.0334C41.8277 64.7404 41.7511 65.5183 41.9003 66.2688C42.0496 67.0193 42.4181 67.7087 42.9592 68.2498C43.5003 68.7909 44.1897 69.1594 44.9402 69.3087C45.6907 69.4579 46.4686 69.3813 47.1756 69.0885C47.8826 68.7957 48.4868 68.2998 48.912 67.6635C49.3371 67.0272 49.564 66.2792 49.564 65.514C49.564 64.4879 49.1564 63.5038 48.4308 62.7782C47.7052 62.0526 46.7211 61.645 45.695 61.645Z" fill="#EBCF9B"/>
<path opacity="0.1" d="M88.014 26.897C75.966 45.24 48.705 81.397 20.489 82.312C28.0586 90.521 38.4806 95.5248 49.6201 96.2984C60.7595 97.0721 71.7732 93.557 80.4049 86.4733C89.0367 79.3896 94.6331 69.2734 96.0478 58.1971C97.4624 47.1208 94.5882 35.9228 88.014 26.897Z" fill="#682525"/>
<path opacity="0.1" d="M96.309 49.992C83.468 67.269 58.584 92.598 25.852 87.23C32.321 92.2426 40.0662 95.3402 48.2077 96.1708C56.3491 97.0015 64.5604 95.5318 71.9083 91.9289C79.2563 88.326 85.4463 82.7342 89.775 75.789C94.1038 68.8439 96.3976 60.8237 96.396 52.64C96.396 51.75 96.362 50.868 96.309 49.992Z" fill="#682525"/>
<path opacity="0.5" d="M66.394 19.391C72.179 28.918 65.955 43.268 52.494 51.442C39.033 59.616 23.426 58.522 17.644 48.994C11.862 39.466 18.084 25.118 31.544 16.944C45.004 8.77 60.611 9.865 66.394 19.391Z" fill="url(#paint0_linear_1_23)"/>
<path opacity="0.3" d="M53.901 18.325C57.355 24.016 53.047 32.945 44.276 38.272C35.505 43.599 25.593 43.301 22.139 37.611C18.685 31.921 22.992 22.991 31.763 17.666C40.534 12.341 50.446 12.635 53.901 18.325Z" fill="white"/>
</g>
<defs>
<linearGradient id="paint0_linear_1_23" x1="-78.8799" y1="-63.4981" x2="-65.3482" y2="-29.6109" gradientUnits="userSpaceOnUse">
<stop stop-color="white"/>
<stop offset="1" stop-color="white" stop-opacity="0"/>
</linearGradient>
<clipPath id="clip0_1_23">
<rect width="105.279" height="105.279" fill="white"/>
</clipPath>
</defs>
</svg>
