<svg width="106" height="106" viewBox="0 0 106 106" fill="none" xmlns="http://www.w3.org/2000/svg">
<path d="M95.7631 59.99C99.8342 36.1736 83.8276 13.5663 60.0112 9.49509C36.1948 5.4239 13.5875 21.4305 9.51631 45.2469C5.44512 69.0633 21.4518 91.6706 45.2681 95.7418C69.0845 99.813 91.6919 83.8064 95.7631 59.99Z" fill="#9D2929"/>
<path d="M66.3553 52.7725C68.3163 53.6047 70.48 53.8367 72.5728 53.4392C74.6656 53.0417 76.5935 52.0326 78.1128 50.5394C79.6322 49.0463 80.6746 47.1361 81.1084 45.0506C81.5421 42.965 81.3477 40.7976 80.5497 38.8225C79.7517 36.8474 78.386 35.1533 76.6252 33.9543C74.8644 32.7554 72.7876 32.1055 70.6575 32.0868C68.5273 32.0681 66.4395 32.6815 64.658 33.8493C62.8764 35.0172 61.4811 36.6871 60.6486 38.6479C59.5323 41.2777 59.5065 44.2432 60.5767 46.8921C61.6469 49.541 63.7255 51.6562 66.3553 52.7725Z" fill="#D87131"/>
<path d="M44.1738 21.1453C43.0706 20.677 41.8534 20.5464 40.6761 20.77C39.4987 20.9935 38.4141 21.5612 37.5593 22.4012C36.7046 23.2412 36.1182 24.3158 35.8742 25.4891C35.6302 26.6624 35.7397 27.8817 36.1887 28.9928C36.6377 30.1039 37.4061 31.0569 38.3968 31.7313C39.3875 32.4056 40.5559 32.7711 41.7542 32.7814C42.9526 32.7917 44.1271 32.4464 45.1292 31.7892C46.1313 31.132 46.916 30.1923 47.3841 29.0891C47.6951 28.3568 47.8587 27.5703 47.8657 26.7747C47.8727 25.979 47.7228 25.1898 47.4247 24.4521C47.1266 23.7144 46.686 23.0427 46.1282 22.4753C45.5704 21.9079 44.9063 21.4559 44.1738 21.1453Z" fill="#998457"/>
<path d="M67.5744 26.6416C70.4823 27.873 73.6979 28.1829 76.7875 27.5296C79.877 26.8764 82.6919 25.2913 84.8524 22.9882C77.9392 15.4767 68.6165 10.6198 58.499 9.25866C57.7654 12.7588 58.2691 16.405 59.9242 19.5751C61.5793 22.7452 64.2832 25.2428 67.5744 26.6416Z" fill="#D87131"/>
<path d="M51.424 83.9639C50.9795 83.7753 50.4892 83.7227 50.0149 83.8127C49.5405 83.9028 49.1036 84.1314 48.7592 84.4698C48.4149 84.8082 48.1786 85.2411 48.0803 85.7138C47.982 86.1864 48.0261 86.6776 48.2069 87.1253C48.3878 87.5729 48.6973 87.9569 49.0964 88.2286C49.4954 88.5003 49.9661 88.6476 50.4489 88.6518C50.9316 88.656 51.4048 88.5169 51.8086 88.2522C52.2123 87.9875 52.5285 87.609 52.7171 87.1646C52.8425 86.8696 52.9085 86.5527 52.9114 86.2321C52.9142 85.9115 52.8539 85.5935 52.7338 85.2963C52.6137 84.999 52.4362 84.7284 52.2115 84.4998C51.9867 84.2711 51.7191 84.0891 51.424 83.9639Z" fill="#D87131"/>
<path d="M57.0177 23.9454C56.5735 23.7568 56.0833 23.7042 55.6092 23.7942C55.1351 23.8842 54.6983 24.1129 54.3541 24.4511C54.0099 24.7893 53.7737 25.2221 53.6754 25.6945C53.5772 26.167 53.6212 26.658 53.802 27.1055C53.9828 27.5529 54.2922 27.9367 54.6911 28.2083C55.09 28.4799 55.5605 28.6271 56.043 28.6313C56.5256 28.6355 56.9986 28.4966 57.4021 28.232C57.8057 27.9674 58.1218 27.589 58.3104 27.1448C58.4357 26.8499 58.5017 26.5331 58.5045 26.2127C58.5074 25.8922 58.4471 25.5744 58.327 25.2772C58.207 24.9801 58.0296 24.7095 57.8049 24.481C57.5802 24.2525 57.3127 24.0705 57.0177 23.9454Z" fill="#D87131"/>
<path d="M62.5211 85.927C63.6242 86.3952 64.8414 86.5258 66.0188 86.3023C67.1962 86.0787 68.2808 85.511 69.1355 84.671C69.9902 83.831 70.5767 82.7564 70.8206 81.5831C71.0646 80.4098 70.9552 79.1905 70.5061 78.0794C70.0571 76.9683 69.2887 76.0153 68.298 75.341C67.3074 74.6666 66.139 74.3012 64.9407 74.2908C63.7423 74.2805 62.5678 74.6258 61.5657 75.2831C60.5636 75.9403 59.7789 76.8799 59.3108 77.9831C58.9998 78.7155 58.8361 79.5019 58.8291 80.2976C58.8222 81.0932 58.972 81.8824 59.2701 82.6201C59.5682 83.3578 60.0088 84.0296 60.5666 84.597C61.1244 85.1644 61.7886 85.6163 62.5211 85.927Z" fill="#D87131"/>
<path d="M24.3407 44.4027C25.0453 44.7018 25.8227 44.7852 26.5747 44.6425C27.3267 44.4997 28.0195 44.1372 28.5654 43.6007C29.1113 43.0642 29.4859 42.3779 29.6418 41.6285C29.7977 40.8791 29.7278 40.1003 29.4411 39.3907C29.1543 38.681 28.6636 38.0723 28.0309 37.6415C27.3982 37.2107 26.652 36.9772 25.8866 36.9705C25.1213 36.9639 24.3711 37.1843 23.731 37.604C23.0909 38.0236 22.5896 38.6237 22.2905 39.3283C21.8895 40.2731 21.8802 41.3385 22.2647 42.2901C22.6492 43.2418 23.3959 44.0017 24.3407 44.4027Z" fill="#D87131"/>
<path d="M96.3155 55.6018C92.8247 54.7784 89.1559 55.1966 85.94 56.7848C82.7241 58.373 80.1619 61.0318 78.6937 64.3042C77.2256 67.5767 76.9432 71.2584 77.8952 74.7164C78.8473 78.1745 80.9741 81.1929 83.9103 83.2528C91.2077 75.8082 95.6069 66.0024 96.3155 55.6018Z" fill="#998457"/>
<path d="M42.0632 75.0052C42.7003 73.504 42.8778 71.8475 42.5735 70.2454C42.2692 68.6432 41.4966 67.1672 40.3535 66.0041C39.2104 64.841 37.748 64.043 36.1514 63.7109C34.5547 63.3789 32.8954 63.5277 31.3834 64.1386C29.8713 64.7495 28.5743 65.7951 27.6564 67.1431C26.7386 68.4911 26.241 70.081 26.2267 71.7117C26.2124 73.3425 26.6819 74.9409 27.576 76.3048C28.47 77.6687 29.7484 78.7369 31.2495 79.3743C33.2629 80.2286 35.5332 80.2483 37.5611 79.429C39.589 78.6096 41.2084 77.0184 42.0632 75.0052Z" fill="#998457"/>
<path d="M45.3056 48.6326C44.8612 48.4438 44.3708 48.391 43.8964 48.4809C43.422 48.5707 42.985 48.7993 42.6405 49.1376C42.296 49.4759 42.0596 49.9088 41.9612 50.3815C41.8627 50.8542 41.9067 51.3454 42.0874 51.7931C42.2682 52.2408 42.5777 52.6249 42.9768 52.8967C43.3758 53.1685 43.8465 53.3158 44.3293 53.3201C44.8121 53.3244 45.2854 53.1853 45.6892 52.9206C46.093 52.6559 46.4092 52.2774 46.5978 51.833C46.7232 51.538 46.7892 51.2212 46.7921 50.9007C46.795 50.5802 46.7347 50.2623 46.6147 49.9651C46.4947 49.6679 46.3173 49.3972 46.0927 49.1686C45.8681 48.94 45.6006 48.7579 45.3056 48.6326Z" fill="#D87131"/>
<path d="M58.2352 62.538C57.9362 63.2424 57.8528 64.0196 57.9955 64.7714C58.1382 65.5232 58.5007 66.2158 59.037 66.7616C59.5734 67.3074 60.2595 67.6818 61.0087 67.8377C61.7579 67.9935 62.5364 67.9237 63.2459 67.637C63.9554 67.3504 64.564 66.8598 64.9947 66.2272C65.4253 65.5947 65.6588 64.8487 65.6654 64.0835C65.6721 63.3183 65.4517 62.5683 65.0322 61.9284C64.6126 61.2885 64.0127 60.7873 63.3083 60.4883C62.3638 60.0874 61.2986 60.0781 60.3472 60.4625C59.3958 60.8469 58.6361 61.5935 58.2352 62.538Z" fill="#D87131"/>
<path opacity="0.1" d="M42.7848 10.006C54.9621 28.2635 77.5931 67.485 67.4105 93.8155C77.9245 90.0551 86.6028 82.4167 91.6674 72.4651C96.7321 62.5135 97.7999 51.0019 94.652 40.2885C91.5041 29.5752 84.3788 20.4709 74.7358 14.8409C65.0927 9.21081 53.6618 7.48109 42.7848 10.006Z" fill="#830F0F"/>
<path opacity="0.1" d="M67.285 11.3944C78.1711 29.9653 91.7637 62.7679 74.033 90.8004C81.1747 86.8043 87.0524 80.8851 90.9981 73.7154C94.9438 66.5457 96.7994 58.413 96.354 50.2414C95.9085 42.0698 93.1799 34.187 88.4782 27.4887C83.7765 20.7903 77.2902 15.5451 69.7564 12.349C68.9372 12.0012 68.112 11.6879 67.285 11.3944Z" fill="#830F0F"/>
<path opacity="0.5" d="M27.4279 26.9745C38.4579 25.3719 49.2352 36.7081 51.4998 52.2929C53.7644 67.8776 46.6592 81.8165 35.6294 83.416C24.5997 85.0154 13.8234 73.6818 11.5584 58.098C9.29345 42.5142 16.3995 28.5757 27.4279 26.9745Z" fill="url(#paint0_linear_1_87)"/>
<path opacity="0.3" d="M21.5652 38.0579C28.1534 37.1021 34.6893 44.5565 36.1657 54.7117C37.6422 64.8668 33.4949 73.8744 26.9077 74.8306C20.3204 75.7868 13.7832 68.3329 12.3086 58.1785C10.834 48.0241 14.9776 39.015 21.5652 38.0579Z" fill="#F01B1B"/>
<defs>
<linearGradient id="paint0_linear_1_87" x1="-105.635" y1="128.313" x2="-69.1544" y2="129.097" gradientUnits="userSpaceOnUse">
<stop stop-color="white"/>
<stop offset="1" stop-color="white" stop-opacity="0"/>
</linearGradient>
</defs>
</svg>
