<svg width="106" height="107" viewBox="0 0 106 107" fill="none" xmlns="http://www.w3.org/2000/svg">
<g clip-path="url(#clip0_1_107)">
<path d="M36.9083 90.024C57.0898 99.0094 80.7342 89.9331 89.7196 69.7517C98.7049 49.5702 89.6287 25.9257 69.4472 16.9404C49.2657 7.95499 25.6213 17.0312 16.6359 37.2127C7.65055 57.3942 16.7268 81.0386 36.9083 90.024Z" fill="#E0D1CC"/>
<path d="M30.6102 20.4569C45.5394 26.873 68.5167 35.4332 90.115 38.1619C92.3956 43.6537 93.4246 49.5845 93.1271 55.5236C67.3688 51.9018 42.3565 44.1791 19.04 32.6487C21.9831 27.8061 25.9282 23.6492 30.6102 20.4569Z" fill="#86E2AC"/>
<path d="M16.4199 37.7316C15.7274 39.3426 15.1409 40.9972 14.664 42.6847C38.2942 55.3888 63.9268 63.9494 90.4487 67.9949C91.3395 65.7076 92.0174 63.3429 92.4737 60.931C64.2334 58.3339 29.3725 43.5949 16.4199 37.7316Z" fill="#9E6A9D"/>
<path d="M78.8197 84.1792C82.4633 81.1444 85.5342 77.4817 87.887 73.3645C57.9769 68.1748 28.9263 55.9073 13.4593 48.6258C12.7888 54.18 13.2936 59.813 14.9407 65.1595C14.8216 64.7684 14.6936 64.3788 14.5859 63.9833C35.5287 72.1235 56.9868 78.8702 78.8197 84.1792Z" fill="#86E2AC"/>
<path d="M78.8182 84.1826C56.9873 78.8729 35.5312 72.1257 14.5905 63.9853C14.6981 64.3808 14.8266 64.7692 14.9452 65.1615C15.0907 65.6336 15.2396 66.1072 15.4022 66.5747C15.5437 66.9825 15.689 67.388 15.8427 67.7931C16.0507 68.3351 16.2752 68.8709 16.5073 69.4046C16.7252 69.9072 16.9532 70.4046 17.191 70.897C17.4408 71.4155 17.6951 71.936 17.9702 72.4373C18.1571 72.7921 18.3547 73.138 18.5539 73.4833C18.8491 73.9976 19.1593 74.5023 19.4771 75.0022C19.646 75.2661 19.8041 75.5361 19.9779 75.7954C20.4497 76.4983 20.9516 77.1793 21.4656 77.8576C21.6719 78.1259 21.887 78.39 22.0998 78.6531C22.5092 79.1567 22.9281 79.6501 23.3565 80.1332C23.5474 80.3539 23.7349 80.5732 23.9341 80.7814C24.5415 81.4319 25.1724 82.064 25.8269 82.6777C26.0187 82.8567 26.2146 83.0268 26.4141 83.2038C26.9495 83.6866 27.4988 84.1574 28.062 84.6164C28.2728 84.7863 28.4815 84.9579 28.6955 85.1238C29.438 85.6974 30.2002 86.2513 30.99 86.7767C31.1268 86.8688 31.2709 86.9507 31.4076 87.04C32.1005 87.4843 32.8082 87.9134 33.5322 88.3213C33.7641 88.4531 33.9975 88.5814 34.2325 88.7091C35.1018 89.1749 35.9859 89.6256 36.9015 90.0332C37.7025 90.3899 38.5113 90.7079 39.3193 91.0065C39.5152 91.0788 39.71 91.1505 39.9035 91.219C40.7135 91.5037 41.5239 91.7694 42.3393 91.9994C42.3823 92.0186 42.4292 92.0232 42.4753 92.0356C43.2611 92.2497 44.0453 92.4399 44.8335 92.609C45.023 92.6499 45.2114 92.6903 45.4018 92.7262C46.2281 92.8891 47.0546 93.0331 47.8824 93.1437L48.0733 93.1662C48.8596 93.2664 49.6458 93.3395 50.4315 93.392C50.597 93.4046 50.7614 93.4167 50.9267 93.4265C51.7699 93.472 52.6111 93.4976 53.4509 93.49C53.5092 93.4901 53.5679 93.4864 53.6273 93.4871C54.4315 93.4758 55.2334 93.4405 56.0329 93.381C56.1591 93.372 56.2873 93.3585 56.4108 93.3524C57.2661 93.2824 58.1136 93.1872 58.9631 93.0631L59.0904 93.0425C59.9191 92.9172 60.7419 92.7658 61.5586 92.5882L61.7847 92.5408C62.6449 92.3491 63.4967 92.1314 64.3401 91.8878L64.4008 91.8673C65.2503 91.6182 66.09 91.3413 66.9199 91.0365L66.9823 91.0154C67.8314 90.7019 68.6695 90.3605 69.4966 89.9911C72.8551 88.4909 75.9916 86.5364 78.8182 84.1826Z" fill="#9E6A9D"/>
<path opacity="0.3" d="M77.443 30.9912C77.1127 32.1448 72.1745 31.7369 66.4135 30.0816C60.6526 28.4263 56.2504 26.1528 56.5819 24.9997C56.9133 23.8466 61.6363 25.0003 67.3977 26.6545C73.1591 28.3086 77.774 29.8392 77.443 30.9912Z" fill="#BD49EA"/>
<path opacity="0.3" d="M61.7731 21.2258C61.5575 21.9784 58.3358 21.7129 54.5711 20.6301C50.8063 19.5472 47.9399 18.066 48.1555 17.3134C48.3711 16.5609 51.4537 17.3156 55.2122 18.3943C58.9706 19.473 61.9859 20.4734 61.7731 21.2258Z" fill="#BD49EA"/>
<path opacity="0.3" d="M46.2717 38.7584C45.8394 39.8788 40.9571 39.0343 35.3661 36.8722C29.7752 34.7102 25.5924 32.0536 26.0258 30.9337C26.4593 29.8138 31.0594 31.3867 36.6497 33.5472C42.24 35.7076 46.7042 37.6408 46.2717 38.7584Z" fill="#BD49EA"/>
<path opacity="0.3" d="M64.5705 87.5616C64.2728 88.7243 59.3263 88.4539 53.5203 86.9578C47.7143 85.4617 43.2511 83.3129 43.5511 82.1513C43.851 80.9896 48.6031 82.0138 54.4079 83.5067C60.2126 84.9995 64.87 86.401 64.5705 87.5616Z" fill="#BD49EA"/>
<path opacity="0.3" d="M67.844 39.6277C67.6249 40.376 64.5333 40.1291 60.9354 39.0771C57.3376 38.0251 54.5993 36.567 54.8189 35.8176C55.0385 35.0681 57.9876 35.8028 61.5848 36.8531C65.1821 37.9035 68.0614 38.88 67.844 39.6277Z" fill="#BD49EA"/>
<path opacity="0.3" d="M42.5112 66.5745C42.2764 67.3185 39.1948 67.0096 35.6164 65.8834C32.0379 64.7572 29.3327 63.2433 29.5676 62.4993C29.8024 61.7553 32.7348 62.5517 36.3108 63.6741C39.8869 64.7965 42.7444 65.8312 42.5112 66.5745Z" fill="#BD49EA"/>
<path opacity="0.3" d="M89.857 49.7652C89.6743 50.6817 85.9577 50.7105 81.5516 49.8363C77.1454 48.9621 73.7243 47.504 73.9091 46.5857C74.0939 45.6674 77.69 46.2326 82.0945 47.1074C86.499 47.9823 90.0387 48.8509 89.857 49.7652Z" fill="#BD49EA"/>
<path opacity="0.3" d="M78.604 62.7078C78.3837 63.6388 74.441 63.5045 69.7946 62.4106C65.1482 61.3167 61.5579 59.6775 61.7771 58.746C61.9963 57.8145 65.8001 58.5535 70.4442 59.6464C75.0883 60.7393 78.82 61.7775 78.604 62.7078Z" fill="#BD49EA"/>
<path opacity="0.2" d="M92.2362 44.8697C73.3416 56.1546 39.2998 73.0709 15.0976 65.7127C18.2418 75.5037 25.0365 83.7075 34.0706 88.6203C43.1047 93.5332 53.6839 94.7777 63.6114 92.0952C73.5389 89.4128 82.0518 83.0096 87.3822 74.2154C92.7126 65.4212 94.4509 54.9118 92.2362 44.8697Z" fill="#212A3C"/>
<path opacity="0.2" d="M90.0452 68.9653C71.8102 78.1774 43.4347 87.4501 18.7308 73.7997C22.46 80.1289 27.8605 85.3086 34.3397 88.7704C40.819 92.2323 48.1266 93.8425 55.4608 93.4245C62.795 93.0065 69.8723 90.5762 75.9163 86.4006C81.9602 82.2249 86.7371 76.4651 89.723 69.7532C89.839 69.4926 89.9328 69.2329 90.0452 68.9653Z" fill="#212A3C"/>
<path opacity="0.3" d="M77.7905 31.7324C78.9778 42.2604 67.8832 52.1549 53.003 53.8321C38.1227 55.5092 25.1047 48.3351 23.9164 37.8121C22.7282 27.2892 33.8237 17.3897 48.7028 15.712C63.582 14.0344 76.6011 21.2089 77.7905 31.7324Z" fill="url(#paint0_linear_1_107)"/>
<path opacity="0.3" d="M67.4378 25.8265C68.1459 32.1156 60.8638 38.0975 51.1699 39.1892C41.476 40.2808 33.0483 36.0738 32.3396 29.7858C31.631 23.4978 38.9092 17.5155 48.6075 16.4231C58.3058 15.3307 66.732 19.5411 67.4378 25.8265Z" fill="#69B4A8"/>
</g>
<defs>
<linearGradient id="paint0_linear_1_107" x1="-110.978" y1="-146.036" x2="-112.535" y2="-111.392" gradientUnits="userSpaceOnUse">
<stop stop-color="white"/>
<stop offset="1" stop-color="white" stop-opacity="0"/>
</linearGradient>
<clipPath id="clip0_1_107">
<rect width="80" height="80" fill="white" transform="translate(32.9054 0.670898) rotate(24)"/>
</clipPath>
</defs>
</svg>
